<?xml version="1.0" encoding="UTF-8" standalone="no"?>
<!-- Created with Inkscape (http://www.inkscape.org/) -->

<svg
   width="830.90247mm"
   height="183.84174mm"
   viewBox="0 0 830.90247 183.84174"
   version="1.1"
   id="svg5"
   xmlns="http://www.w3.org/2000/svg">
  <defs
     id="defs2" />
  <g
     id="layer1"
     transform="translate(608.96797,-694.12639)">
    <path
       id="path2399"
       style="opacity:1;fill:#ffffff;stroke:none;stroke-width:2.51876;stroke-linecap:round;stroke-linejoin:round;stroke-opacity:1"
       d="m 45.294802,694.12724 -4.59e-4,6.6e-4 v 3.5e-4 c -22.802649,0.10764 -45.38804548,10.01009 -60.931541,29.02251 -25.263046,30.90124 -23.237526,75.24574 3.123216,103.74067 v 0.01 l -30.331803,37.10202 17.081759,13.96462 30.3325033,-37.1021 v -0.01 C 37.734576,861.02649 81.597119,854.19676 106.86017,823.29564 134.49287,789.49575 129.48471,739.60734 95.684939,711.97454 80.897468,699.88528 63.030151,694.0436 45.294802,694.12724 Z m 2.1431,2.89017 a 76.227963,76.227963 0 0 1 46.422005,17.19063 76.227963,76.227963 0 0 1 10.767953,107.26349 76.227963,76.227963 0 0 1 -102.3740571,14.44156 76.227963,76.227963 0 0 1 -0.1925633,-0.13219 76.227963,76.227963 0 0 1 -4.6967094,-3.54149 76.227963,76.227963 0 0 1 -4.4051749,-3.89954 76.227963,76.227963 0 0 1 -0.167718,-0.16196 76.227963,76.227963 0 0 1 -6.1949833,-103.20197 76.227963,76.227963 0 0 1 60.841248,-27.95853 z m -2.12749,2.84312 c -21.128183,0.0958 -42.0479679,9.28585 -56.481606,26.94092 -25.660016,31.38672 -21.026138,77.5451 10.36053122,103.20512 C 30.576082,855.66658 76.735152,851.03324 102.39502,819.6465 128.05511,788.25971 123.42062,742.10035 92.033943,716.44036 78.302183,705.21411 61.743428,699.78635 45.310412,699.86053 Z m 1.79466,29.50898 c 0.580453,0 1.152989,0.01 1.717607,0.0294 0.564686,0.019 1.121689,0.0484 1.670385,0.0877 0.548774,0.0393 1.089542,0.0876 1.622403,0.14519 0.53293,0.0585 1.057785,0.1262 1.574792,0.20383 0.517017,0.0776 1.026028,0.16433 1.527279,0.26129 0.501016,0.0967 0.994183,0.20344 1.479511,0.31976 0.485249,0.1163 0.962884,0.24249 1.4323,0.37825 0.469405,0.13566 0.930669,0.28128 1.38423,0.43638 0.45357,0.15509 0.899214,0.3197 1.336862,0.49418 0.437727,0.17444 0.867839,0.35873 1.289721,0.55266 0.421891,0.19387 0.835544,0.39762 1.241581,0.61098 0.40597,0.21326 0.80409,0.43602 1.194215,0.66876 0.390125,0.23258 0.772098,0.47503 1.146301,0.72707 0.374281,0.25206 0.740566,0.51387 1.098924,0.7854 0.358446,0.2714 0.709111,0.55218 1.051557,0.84302 0.342601,0.29088 0.676895,0.59143 1.003496,0.90167 0.326757,0.30789 0.643284,0.61939 0.949589,0.93477 0.306295,0.31532 0.602213,0.63443 0.888056,0.95728 0.285843,0.32288 0.561621,0.64927 0.82708,0.97962 0.265312,0.33028 0.520316,0.66484 0.765333,1.00267 0.245007,0.33782 0.479714,0.67906 0.704269,1.02433 0.224545,0.3453 0.439025,0.69474 0.643205,1.04752 0.204249,0.35281 0.398501,0.70941 0.582376,1.06969 0.183719,0.36029 0.356904,0.72429 0.520238,1.09205 0.163423,0.36776 0.316458,0.73942 0.459419,1.11473 0.142882,0.37532 0.276002,0.75414 0.398423,1.13692 0.122586,0.38275 0.234405,0.76903 0.336373,1.15926 0.102046,0.39026 0.19433,0.7845 0.275924,1.18228 0.08171,0.39769 0.152958,0.79934 0.214246,1.20463 0.0615,0.40524 0.112121,0.8143 0.152879,1.22698 0.04149,0.41284 0.07156,0.82938 0.09196,1.24966 0.02001,0.42015 0.03075,0.84393 0.03075,1.27167 H 62.502757 c 0,-0.50294 -0.01845,-0.99443 -0.05848,-1.47449 -0.03925,-0.47992 -0.09882,-0.94852 -0.1771,-1.4056 -0.07859,-0.45707 -0.177109,-0.90285 -0.295224,-1.33703 -0.118125,-0.43405 -0.256088,-0.85681 -0.413506,-1.26815 -0.472403,-1.2337 -1.121768,-2.36448 -1.94839,-3.39208 -0.275534,-0.34245 -0.570993,-0.67351 -0.885908,-0.99308 -1.574567,-1.62164 -3.699754,-2.73605 -6.376008,-3.3442 -0.535087,-0.12153 -1.092393,-0.22315 -1.671693,-0.30431 -0.570544,-0.0796 -1.16361,-0.13953 -1.776981,-0.18013 h -0.0577 c -0.614133,-0.0393 -1.248884,-0.0594 -1.905698,-0.0594 -0.625136,0 -1.230053,0.0173 -1.814586,0.0514 -0.58468,0.0342 -1.148527,0.0847 -1.692605,0.15324 -0.544009,0.0685 -1.067782,0.15336 -1.571258,0.25558 -0.503554,0.1022 -0.987115,0.22165 -1.450146,0.35791 -1.8518,0.54522 -3.379303,1.36314 -4.582586,2.45362 -0.296143,0.26787 -0.573688,0.54403 -0.832772,0.82909 -0.259075,0.28491 -0.499854,0.57871 -0.721871,0.88065 -0.222094,0.30207 -0.425348,0.61229 -0.610452,0.93125 -0.185105,0.31899 -0.351828,0.64677 -0.499933,0.98282 -0.148037,0.3361 -0.277467,0.68071 -0.388436,1.03374 -0.111047,0.35316 -0.203556,0.71473 -0.277613,1.08481 -0.0738,0.37019 -0.129586,0.74885 -0.166722,1.13608 -0.0369,0.38719 -0.05535,0.78257 -0.05535,1.18682 0,1.92707 0.558155,3.64856 1.674466,5.16434 0.223393,0.30314 0.469024,0.59829 0.737022,0.88502 0.267773,0.28669 0.558155,0.56502 0.870689,0.8353 0.312523,0.27032 0.64751,0.53261 1.004716,0.78639 0.357285,0.24911 0.73711,0.49578 1.139614,0.74019 0.402347,0.24449 0.827305,0.48641 1.275028,0.72607 0.8953,0.47944 1.881253,0.94973 2.957733,1.41031 0.538074,0.23035 1.09869,0.4583 1.682149,0.68388 0.58345,0.22562 1.189597,0.44889 1.81811,0.66979 0.628679,0.22093 1.28027,0.43951 1.954081,0.65566 0.673967,0.21622 1.370543,0.43009 2.089661,0.64155 1.160905,0.33845 2.283903,0.68735 3.369072,1.04685 7.596063,2.51701 13.335407,5.55231 17.217795,9.10554 0.272537,0.24742 0.536161,0.49971 0.79217,0.75632 0.01,0.01 0.01464,0.0131 0.02001,0.0201 0.01,0.01 0.01152,0.0121 0.01845,0.0182 0.255853,0.25757 0.503476,0.51942 0.742723,0.7864 0.244705,0.27311 0.480564,0.55138 0.707725,0.83428 0.227249,0.28291 0.445878,0.57043 0.655672,0.86302 0.209784,0.29256 0.410958,0.59035 0.603219,0.89259 0.192173,0.30232 0.375735,0.60939 0.550462,0.92133 0.174796,0.31191 0.340601,0.62883 0.497941,0.95056 0.157263,0.32164 0.305915,0.64773 0.4458,0.97913 0.139729,0.33141 0.27077,0.66781 0.393122,1.00888 0.122352,0.34103 0.235704,0.68717 0.340669,1.03794 0.104819,0.35071 0.201105,0.70609 0.288459,1.0665 0.08767,0.36053 0.166186,0.72572 0.236094,1.09592 0.06922,0.37016 0.131275,0.74515 0.183719,1.12498 0.05233,0.37985 0.09587,0.7647 0.130884,1.1542 0.03534,0.38952 0.0615,0.78401 0.07849,1.18331 0.01689,0.39921 0.02616,0.80293 0.02616,1.21186 0,0.43241 -0.01,0.85905 -0.03153,1.28023 -0.02158,0.42102 -0.05155,0.83656 -0.09255,1.24625 -0.04149,0.40981 -0.09294,0.81386 -0.155261,1.21244 -0.06228,0.39843 -0.134965,0.79148 -0.21779,1.17875 -0.08259,0.38705 -0.176103,0.76879 -0.279614,1.14461 -0.103589,0.37582 -0.217321,0.74579 -0.341596,1.11039 -0.124276,0.36458 -0.25885,0.7238 -0.403812,1.07708 -0.144962,0.35322 -0.300379,0.70066 -0.466106,1.04264 -0.165648,0.34183 -0.341752,0.67836 -0.528087,1.00887 -0.186403,0.33068 -0.382891,0.6556 -0.58999,0.9749 -0.207168,0.31936 -0.42488,0.63267 -0.652666,0.94066 -0.227786,0.30799 -0.465481,0.61052 -0.713953,0.90721 -0.248551,0.29669 -0.507938,0.58815 -0.777175,0.87345 -0.269227,0.28546 -0.548461,0.56492 -0.838463,0.839 -0.289914,0.27408 -0.590371,0.54247 -0.900981,0.80517 -0.310601,0.26285 -0.631589,0.51993 -0.963042,0.77132 -0.329061,0.25154 -0.665043,0.49509 -1.008338,0.7308 -0.343139,0.23578 -0.693423,0.46387 -1.050864,0.68389 -0.357518,0.22002 -0.722495,0.43204 -1.094238,0.63629 -0.37182,0.20432 -0.75064,0.40096 -1.136606,0.5896 -0.385976,0.18857 -0.779245,0.36929 -1.179601,0.54208 -0.4002,0.17303 -0.807389,0.33775 -1.221891,0.49495 -0.414502,0.15718 -0.836237,0.30637 -1.264963,0.44787 -0.428725,0.14142 -0.864226,0.27516 -1.307331,0.40097 -0.442881,0.12566 -0.893299,0.24362 -1.350472,0.35367 -0.457183,0.10997 -0.921678,0.21194 -1.393162,0.30623 -2.828909,0.56576 -5.914139,0.84891 -9.255916,0.84891 -0.657966,0 -1.313862,-0.0154 -1.966528,-0.0454 -0.652743,-0.03 -1.302567,-0.0746 -1.950009,-0.13473 -0.647355,-0.0593 -1.292181,-0.13458 -1.93439,-0.22448 -0.642054,-0.0897 -1.281725,-0.19464 -1.918624,-0.3146 -0.636821,-0.11982 -1.271035,-0.2547 -1.902633,-0.40458 -0.631588,-0.14973 -1.260491,-0.31454 -1.886857,-0.49433 -0.626218,-0.1798 -1.25027,-0.37459 -1.871178,-0.5843 -0.621064,-0.20972 -1.239512,-0.43419 -1.855266,-0.67397 -0.610979,-0.23963 -1.208585,-0.49433 -1.793274,-0.76402 -0.584524,-0.2697 -1.155761,-0.55462 -1.714063,-0.8543 -0.558155,-0.29961 -1.103082,-0.61399 -1.634782,-0.94366 -0.531621,-0.32961 -1.050404,-0.67421 -1.555647,-1.03373 -0.505244,-0.35958 -0.997269,-0.73448 -1.476056,-1.12399 -0.478865,-0.38951 -0.944355,-0.79394 -1.396696,-1.21351 -0.452487,-0.41958 -0.891756,-0.85416 -1.317709,-1.30365 -0.425885,-0.44933 -0.838698,-0.91375 -1.238048,-1.39315 -0.197405,-0.2397 -0.388739,-0.48332 -0.573844,-0.7308 -0.185095,-0.24723 -0.363668,-0.49794 -0.536385,-0.75295 -2.418185,-3.56978 -3.627463,-7.88804 -3.627463,-12.95482 h 14.269688 c 0,3.24319 0.668041,5.92037 2.004679,8.03249 0.133657,0.21124 0.274382,0.41673 0.421423,0.61668 0.735177,0.99964 1.637311,1.85809 2.706635,2.5749 0.432494,0.28669 0.877298,0.55539 1.334403,0.80624 0.457027,0.25085 0.92652,0.48387 1.408226,0.69889 0.481794,0.21509 0.97581,0.41188 1.482283,0.59114 0.506561,0.17918 1.025033,0.3406 1.556117,0.48386 0.531084,0.14335 1.074469,0.26908 1.630242,0.3766 0.555842,0.10758 1.123994,0.19717 1.704525,0.26884 0.580462,0.0716 1.173528,0.12497 1.77867,0.16089 0.60522,0.0361 1.222662,0.0546 1.852561,0.0546 0.620449,0 1.221364,-0.0161 1.802969,-0.0476 0.581614,-0.0323 1.143684,-0.0796 1.686542,-0.14266 0.542848,-0.0639 1.066776,-0.1428 1.570789,-0.23809 0.504101,-0.0947 0.988814,-0.20586 1.454139,-0.33268 0.465334,-0.12688 0.91091,-0.27007 1.337409,-0.42872 0.42649,-0.15865 0.83407,-0.33315 1.221813,-0.52355 0.775476,-0.38067 1.473215,-0.825 2.093654,-1.33272 0.314916,-0.25369 0.610296,-0.51739 0.88583,-0.79108 0.275544,-0.27385 0.5317,-0.55792 0.76795,-0.85161 0.236084,-0.2937 0.452643,-0.59715 0.649433,-0.9109 0.196713,-0.31361 0.373666,-0.63745 0.531163,-0.9712 0.157418,-0.3336 0.295381,-0.67751 0.413496,-1.03118 0.118047,-0.35367 0.216559,-0.71711 0.295234,-1.09069 0.07859,-0.37371 0.137728,-0.75739 0.1771,-1.15107 0.03925,-0.39354 0.05848,-0.79711 0.05848,-1.21069 0,-0.40427 -0.01689,-0.79902 -0.05155,-1.18379 -0.03388,-0.38492 -0.08562,-0.76023 -0.153728,-1.12564 -0.06844,-0.36549 -0.152879,-0.72117 -0.255082,-1.06718 -0.102202,-0.34607 -0.221479,-0.68208 -0.357743,-1.0087 -0.136351,-0.32663 -0.29008,-0.64376 -0.460414,-0.95107 -0.170413,-0.30728 -0.357597,-0.60476 -0.56208,-0.8926 -0.204483,-0.28792 -0.425953,-0.5664 -0.664585,-0.83495 -0.238544,-0.26849 -0.493938,-0.52687 -0.766553,-0.77598 -0.267929,-0.24917 -0.580385,-0.50175 -0.936898,-0.75732 -0.356669,-0.25559 -0.757718,-0.51444 -1.203127,-0.77649 -0.445342,-0.26208 -0.934594,-0.52731 -1.468675,-0.7958 -0.534013,-0.26853 -1.112699,-0.5402 -1.735374,-0.81513 -0.622821,-0.27496 -1.290023,-0.55296 -2.001448,-0.83445 -0.711571,-0.28139 -1.467522,-0.56616 -2.267834,-0.85411 -0.800165,-0.2878 -1.644857,-0.57904 -2.533762,-0.87344 -0.888915,-0.29427 -1.822191,-0.5918 -2.799768,-0.89259 -0.97297,-0.30549 -1.923242,-0.62131 -2.850992,-0.94737 -0.927584,-0.32603 -1.832568,-0.6628 -2.715098,-1.00938 -0.882443,-0.34661 -1.742364,-0.70358 -2.579675,-1.07088 -0.837155,-0.36712 -1.6517,-0.7445 -2.443714,-1.1322 -0.791935,-0.38782 -1.561339,-0.78584 -2.308055,-1.19421 -0.746716,-0.40827 -1.470745,-0.82676 -2.172319,-1.25572 -0.701507,-0.42884 -1.380238,-0.8682 -2.036446,-1.31771 -0.656278,-0.44939 -1.289945,-0.90896 -1.900935,-1.37906 -0.303151,-0.23733 -0.597068,-0.47985 -0.8813,-0.72808 -0.284223,-0.24823 -0.558614,-0.50226 -0.823849,-0.76136 -0.265313,-0.25916 -0.52139,-0.5233 -0.767783,-0.79328 -0.246315,-0.26992 -0.483024,-0.54564 -0.71042,-0.82655 -0.227327,-0.28078 -0.445107,-0.56719 -0.653514,-0.85882 -0.208408,-0.29168 -0.407346,-0.58855 -0.596834,-0.89108 -0.189488,-0.30257 -0.369751,-0.61055 -0.540242,-0.92401 -0.170568,-0.31343 -0.331677,-0.63231 -0.483248,-0.95662 -0.151649,-0.32431 -0.29338,-0.65453 -0.425963,-0.98972 -0.132651,-0.33519 -0.256155,-0.67569 -0.369897,-1.0218 -0.113664,-0.34599 -0.217711,-0.6972 -0.312455,-1.05408 -0.09479,-0.35685 -0.180019,-0.71975 -0.255775,-1.08751 -0.07537,-0.36776 -0.142111,-0.74046 -0.198938,-1.1191 -0.05613,-0.37864 -0.104282,-0.76314 -0.142199,-1.15271 -0.03846,-0.38953 -0.06609,-0.78439 -0.08562,-1.1848 -0.01845,-0.40032 -0.02773,-0.80644 -0.02773,-1.21773 0,-0.41363 0.01,-0.82252 0.03075,-1.22698 0.02079,-0.40434 0.05233,-0.80387 0.09401,-1.19892 0.04149,-0.39518 0.09362,-0.78545 0.156266,-1.17136 0.06228,-0.38581 0.135659,-0.76719 0.219098,-1.1438 0.08366,-0.37653 0.176943,-0.74871 0.281303,-1.11608 0.104204,-0.36733 0.219098,-0.72976 0.344291,-1.08784 0.125046,-0.35808 0.260695,-0.71166 0.406652,-1.06046 0.146046,-0.34892 0.302381,-0.69321 0.469259,-1.0329 0.166801,-0.33951 0.344135,-0.67424 0.531856,-1.0045 0.187711,-0.33041 0.385585,-0.656 0.594218,-0.97712 0.208485,-0.32111 0.427807,-0.63756 0.657282,-0.94938 0.229475,-0.31183 0.469406,-0.6193 0.719723,-0.92183 0.250318,-0.30255 0.51071,-0.60039 0.781861,-0.89377 0.271082,-0.29326 0.55262,-0.58211 0.844692,-0.86621 0.292003,-0.28403 0.594373,-0.56376 0.907209,-0.83848 0.312837,-0.27482 0.636138,-0.54469 0.969895,-0.81027 0.335982,-0.26799 0.678506,-0.52751 1.027482,-0.77866 0.348977,-0.25115 0.704807,-0.49365 1.066708,-0.72809 0.361902,-0.23443 0.730335,-0.46101 1.105153,-0.67868 0.374827,-0.21773 0.755873,-0.42665 1.143616,-0.62761 0.387811,-0.20088 0.782085,-0.39345 1.182822,-0.57769 0.40058,-0.18412 0.80778,-0.35997 1.221354,-0.52747 0.413662,-0.16739 0.833777,-0.32634 1.260277,-0.47704 0.426646,-0.15063 0.859608,-0.29312 1.299102,-0.42714 0.439415,-0.13393 0.885449,-0.25985 1.337858,-0.37706 0.452497,-0.11722 0.911213,-0.22599 1.376547,-0.32649 0.465335,-0.10077 0.937278,-0.19234 1.415528,-0.27608 0.478182,-0.0837 0.963051,-0.15898 1.454139,-0.22601 1.964692,-0.2679 4.032437,-0.4021 6.203916,-0.4021 z M -403.60326,743.2094 v 133.02667 h 19.05329 l 0.95259,-10.21949 c 6.23559,7.96773 14.80969,11.95156 25.72199,11.95156 11.89389,0 20.92979,-4.47462 27.10762,-13.42385 6.23559,-9.00698 9.35343,-20.41015 9.35343,-34.20935 v -1.81881 c 0,-14.08789 -3.08884,-25.54866 -9.26676,-34.38246 -6.17784,-8.8915 -15.30048,-13.33727 -27.36755,-13.33727 -10.27717,0 -18.47584,3.57961 -24.596,10.73898 V 743.2094 Z m -156.69227,5.19641 c -13.33729,0 -24.13415,3.29093 -32.39057,9.87296 -8.19869,6.52429 -12.29801,14.86744 -12.29801,25.02922 0,10.10401 3.72409,18.07176 11.17219,23.90323 7.50585,5.77372 17.23459,10.53703 29.18619,14.28984 12.00933,3.69521 19.65946,7.07283 22.95046,10.1329 3.34876,3.06008 5.02319,7.07283 5.02319,12.03823 0,5.08091 -1.93415,9.18025 -5.80252,12.29807 -3.81069,3.11776 -9.52666,4.67664 -17.14796,4.67664 -7.7368,0 -14.2612,-1.76097 -19.573,-5.28293 -5.25409,-3.52203 -7.8811,-9.26675 -7.8811,-17.23449 h -21.91135 c 0,8.89155 2.42506,16.28198 7.275,22.17113 4.90765,5.88916 11.11426,10.30594 18.62008,13.25059 7.56358,2.94457 15.38715,4.41694 23.47037,4.41694 13.68372,0 24.56716,-3.089 32.65036,-9.26692 8.14097,-6.17791 12.21147,-14.57868 12.21147,-25.20229 0,-10.04624 -3.4354,-18.18707 -10.30614,-24.42274 -6.81298,-6.23559 -17.34999,-11.43201 -31.61108,-15.5891 -8.8338,-2.5982 -15.44476,-5.42727 -19.83278,-8.48735 -4.38804,-3.11781 -6.5822,-7.04399 -6.5822,-11.77846 0,-4.96539 1.81876,-9.09352 5.45622,-12.38455 3.69517,-3.34876 9.38236,-5.02318 17.06141,-5.02318 8.19869,0 14.2323,1.99189 18.1007,5.97577 3.86837,3.92612 5.80252,8.97822 5.80252,15.15607 h 21.82464 c 0,-10.50815 -4.01276,-19.54403 -12.03822,-27.1076 -8.02548,-7.62131 -19.16878,-11.43198 -33.42987,-11.43198 z m 462.573926,11.34527 v 22.7774 h -15.502506 v 15.50243 h 15.502506 v 53.60908 c 0,9.64212 2.280603,16.45509 6.841809,20.43892 4.619037,3.92615 10.421594,5.88923 17.407748,5.88923 5.196416,0 9.815452,-0.69289 13.857031,-2.07858 v -16.28191 c -2.4827,0.57738 -4.936564,0.86607 -7.361511,0.86607 -2.886821,0 -5.254016,-0.60614 -7.101585,-1.81865 -1.789891,-1.27027 -2.684876,-4.01275 -2.684876,-8.22759 v -52.39657 h 16.541677 v -15.50243 h -16.541677 v -22.7774 z M -264.02698,780.7964 c -11.83613,0 -21.24724,2.9445 -28.23346,8.83368 -6.92848,5.88921 -10.39268,12.52907 -10.39268,19.9195 h 20.95861 c 0,-3.57978 1.47229,-6.61095 4.41694,-9.09365 3.00233,-2.4827 7.01507,-3.72413 12.03823,-3.72413 5.48503,0 9.58428,1.47236 12.298,4.41694 2.77131,2.88682 4.15709,6.78413 4.15709,11.69171 v 6.14907 h -13.25074 c -13.51052,0 -23.98987,2.65596 -31.43797,7.96773 -7.4481,5.31184 -11.17208,12.96205 -11.17208,22.95053 0,7.96773 2.97349,14.63644 8.92039,20.00604 5.94698,5.36951 13.59703,8.05432 22.95053,8.05432 9.8153,0 18.04289,-3.52196 24.68267,-10.56594 0.57738,3.75297 1.3857,6.69754 2.42488,8.83387 h 21.47839 v -1.47236 c -2.36727,-5.02308 -3.55087,-11.74946 -3.55087,-20.17906 v -41.57094 c 0,-10.73905 -3.43536,-18.79345 -10.30601,-24.16298 -6.81297,-5.36956 -15.47374,-8.05433 -25.98192,-8.05433 z m 95.84054,0 c -11.14324,0 -19.94828,2.82914 -26.41481,8.48734 -6.4666,5.60057 -9.69987,12.24028 -9.69987,19.91932 0,7.90998 3.11776,14.00123 9.35344,18.27382 6.29334,4.21476 14.52092,7.39035 24.68266,9.5266 8.19867,1.73215 13.51044,3.72421 15.93539,5.9759 2.48269,2.19409 3.7242,4.79229 3.7242,7.79462 0,3.34878 -1.47236,6.09109 -4.41693,8.22735 -2.88683,2.13634 -7.10175,3.20459 -12.64453,3.20459 -4.61896,0 -8.94923,-1.15484 -12.99081,-3.46436 -3.98375,-2.30944 -6.09117,-6.35102 -6.32226,-12.12474 h -20.43906 c 0,7.7368 3.37776,14.89613 10.13298,21.47816 6.75522,6.58204 16.57066,9.87314 29.44605,9.87314 11.48975,0 20.66992,-2.65581 27.54065,-7.96766 6.87072,-5.31184 10.306,-12.12481 10.306,-20.43907 0,-8.37185 -3.06,-14.63643 -9.18016,-18.79344 -6.06241,-4.21484 -14.52092,-7.50593 -25.37555,-9.87313 -7.73672,-1.67438 -12.87538,-3.43543 -15.41584,-5.28301 -2.54045,-1.84756 -3.81064,-4.27243 -3.81064,-7.27484 0,-3.11776 1.27019,-5.86031 3.81064,-8.2275 2.54046,-2.3672 6.46661,-3.55095 11.77845,-3.55095 5.48511,0 9.6132,1.44361 12.3846,4.33043 2.77139,2.82906 4.15708,6.06225 4.15708,9.69971 h 21.04536 c 0,-8.42969 -3.34892,-15.50243 -10.04639,-21.21841 -6.63979,-5.71595 -15.82002,-8.57387 -27.54065,-8.57387 z m 350.28213,0 c -11.83612,0 -21.24722,2.9445 -28.23346,8.83368 -6.92847,5.88921 -10.3929,12.52907 -10.3929,19.9195 h 20.95877 c 0,-3.57978 1.47236,-6.61095 4.41694,-9.09365 3.00232,-2.4827 7.01499,-3.72413 12.03807,-3.72413 5.4851,0 9.58451,1.47236 12.29823,4.41694 2.77131,2.88682 4.15693,6.78413 4.15693,11.69171 v 6.14907 h -13.25059 c -13.51043,0 -23.98985,2.65596 -31.43796,7.96773 -7.4481,5.31184 -11.17223,12.96205 -11.17223,22.95053 0,7.96773 2.97349,14.63644 8.92039,20.00604 5.94698,5.36951 13.59725,8.05432 22.95061,8.05432 9.81538,0 18.04295,-3.52196 24.68274,-10.56594 0.57739,3.75297 1.38562,6.69754 2.42495,8.83387 h 21.47832 v -1.47236 c -2.36727,-5.02308 -3.55087,-11.74946 -3.55087,-20.17906 v -41.57094 c 0,-10.73905 -3.43551,-18.79345 -10.30616,-24.16298 -6.81305,-5.36956 -15.47359,-8.05433 -25.98178,-8.05433 z m -680.06721,1.73208 v 60.88393 c 0.0578,12.29808 2.94463,21.13181 8.66059,26.50141 5.71598,5.36951 13.13519,8.05432 22.25767,8.05432 11.43199,0 20.20815,-3.63754 26.32829,-10.91238 l 0.51956,9.18031 h 19.83278 v -93.70759 h -21.04514 v 67.3793 c -3.69518,7.21717 -10.566,10.82587 -20.61229,10.82587 -3.98385,0 -7.47689,-1.21259 -10.47923,-3.63762 -2.94462,-2.4827 -4.41691,-7.10159 -4.41691,-13.85687 v -60.71068 z m 134.55343,15.41591 c 8.02541,0 13.53935,3.03117 16.54168,9.09358 3.00232,6.0624 4.50345,13.22174 4.50345,21.47816 0,9.81529 -1.53012,17.63868 -4.5902,23.47023 -3.06001,5.8314 -8.4872,8.74729 -16.28175,8.74729 -9.00698,0 -15.47359,-4.07057 -19.39974,-12.21149 v -38.45303 c 3.8684,-8.08324 10.27726,-12.12474 19.22656,-12.12474 z m 101.81613,34.20935 h 12.81771 v 17.66745 c -1.44338,2.82914 -3.92608,5.42735 -7.44803,7.79462 -3.52203,2.30937 -7.70811,3.46413 -12.55801,3.46413 -4.84989,0 -8.54518,-1.27019 -11.08564,-3.81064 -2.54037,-2.54039 -3.81049,-5.68706 -3.81049,-9.43995 0,-10.10406 7.36151,-15.32924 22.08446,-15.67561 z m 446.12268,0 h 12.81755 v 17.66745 c -1.44338,2.82914 -3.92615,5.42735 -7.4481,7.79462 -3.52196,2.30937 -7.70788,3.46413 -12.55771,3.46413 -4.85004,0 -8.54526,-1.27019 -11.08571,-3.81064 -2.54046,-2.54039 -3.81064,-5.68706 -3.81064,-9.43995 0,-10.10406 7.36159,-15.32924 22.08461,-15.67561 z" />
  </g>
</svg>
